<?xml version="1.0" encoding="UTF-8"?>
<svg version="1.1" xmlns="http://www.w3.org/2000/svg" width="617" height="405">
<path d="M0 0 C6.80859375 -0.15722656 6.80859375 -0.15722656 8.53125 1.2578125 C8.8509375 1.87398437 9.170625 2.49015625 9.5 3.125 C9.88542969 3.84171875 10.27085937 4.5584375 10.66796875 5.296875 C11.10753906 6.18890625 11.54710937 7.0809375 12 8 C12.61946893 9.19355304 13.24068536 10.3862001 13.86328125 11.578125 C19 21.54079102 19 21.54079102 19 24 C19.66 24 20.32 24 21 24 C21.22429687 23.20335937 21.44859375 22.40671875 21.6796875 21.5859375 C23.37583647 16.97923704 25.70070092 12.88280259 28.125 8.625 C28.82689453 7.37783203 28.82689453 7.37783203 29.54296875 6.10546875 C30.69070549 4.06765046 31.84313282 2.03264431 33 0 C35.31 0 37.62 0 40 0 C40.19947428 3.95782306 40.38235481 7.91625379 40.5625 11.875 C40.64661133 13.53789062 40.64661133 13.53789062 40.73242188 15.234375 C41.02790754 21.93205011 40.90159021 28.35324008 40 35 C38.02 35 36.04 35 34 35 C33.67 28.73 33.34 22.46 33 16 C31.3689943 18.71834283 29.76927667 21.46144666 28.3515625 24.296875 C27.78179687 25.43640625 27.21203125 26.5759375 26.625 27.75 C26.06039063 28.89984375 25.49578125 30.0496875 24.9140625 31.234375 C23 34 23 34 18 35 C14.7 28.73 11.4 22.46 8 16 C7.71079094 21.8785388 7.71079094 21.8785388 7.43188477 27.75756836 C7.39377686 28.48596924 7.35566895 29.21437012 7.31640625 29.96484375 C7.26141968 31.08814087 7.26141968 31.08814087 7.20532227 32.23413086 C7 34 7 34 6 35 C4.00041636 35.04080783 1.99954746 35.04254356 0 35 C-1.0132933 30.88882685 -1.04062543 27.17188615 -0.87890625 22.94921875 C-0.85529526 22.29041214 -0.83168427 21.63160553 -0.80735779 20.95283508 C-0.73124327 18.86414178 -0.64699771 16.77586926 -0.5625 14.6875 C-0.50922687 13.26499403 -0.45648689 11.84246799 -0.40429688 10.41992188 C-0.27570006 6.94636091 -0.13981289 3.47312966 0 0 Z M33 12 C34 15 34 15 34 15 Z " fill="#DDCF90" transform="translate(370,181)"/>
<path d="M0 0 C3.35595828 0.59927826 5.37801226 1.84622436 8 4 C6.61990379 7.33523252 5.15049348 9.18607951 2 11 C0 10.33333333 -2 9.66666667 -4 9 C-11.03978505 11.40059616 -16.32083799 15.34295767 -19.75 21.9375 C-23.55587502 29.72990867 -24.35845542 37.80172261 -21.5625 46.0625 C-18.71818249 52.49226 -13.97638552 56.93533829 -7.765625 60.16015625 C-0.399411 62.96819882 6.8694035 63.03457907 14.25 60.3125 C20.7852005 57.3726841 25.08912637 53.95805872 28.12109375 47.3359375 C29.75749995 42.98673347 30.90529314 38.51151919 32 34 C33.32 34 34.64 34 36 34 C35.61430886 44.49079899 33.17497493 51.38494124 26.0625 59.171875 C18.86287065 65.55336465 10.33764396 67.41659628 0.96484375 67.265625 C-9.14057506 66.36026468 -16.34917457 61.45586016 -23 54 C-27.45400826 47.89233555 -29.3438802 39.8501436 -28.8125 32.35546875 C-27.35353161 23.87521497 -23.66702251 15.63929967 -17 10 C-12.52925046 7.33912494 -7.82948004 4.58507892 -2.6953125 3.5234375 C-1.85613281 3.26433594 -1.85613281 3.26433594 -1 3 C-0.67 2.01 -0.34 1.02 0 0 Z " fill="#6E5532" transform="translate(132,170)"/>
<path d="M0 0 C1.98 0 3.96 0 6 0 C6.01981934 0.70608398 6.03963867 1.41216797 6.06005859 2.13964844 C6.15540415 5.34346994 6.26504513 8.54664801 6.375 11.75 C6.4059375 12.86117187 6.436875 13.97234375 6.46875 15.1171875 C6.50742187 16.18710938 6.54609375 17.25703125 6.5859375 18.359375 C6.6173584 19.34389648 6.6487793 20.32841797 6.68115234 21.34277344 C7.00431917 24.03599531 7.53675697 25.72952965 9 28 C10.84372035 28.77105754 10.84372035 28.77105754 12.9375 28.875 C13.62714844 28.95492187 14.31679688 29.03484375 15.02734375 29.1171875 C17.32582718 29.14705795 17.32582718 29.14705795 20 27 C21.01587978 23.95236066 21.19804406 21.65281033 21.31640625 18.45703125 C21.35830078 17.38388672 21.40019531 16.31074219 21.44335938 15.20507812 C21.48267578 14.08552734 21.52199219 12.96597656 21.5625 11.8125 C21.60568359 10.68134766 21.64886719 9.55019531 21.69335938 8.38476562 C21.79949099 5.58996646 21.90154385 2.79507838 22 0 C23.98 0 25.96 0 28 0 C28.08742801 4.20820145 28.14053641 8.41616776 28.1875 12.625 C28.21263672 13.81480469 28.23777344 15.00460938 28.26367188 16.23046875 C28.35630757 27.28499443 28.35630757 27.28499443 25 32 C20.97330699 35.43453228 16.18905976 36.28492341 11 36 C6.89146049 34.79663227 3.95141349 33.30941734 1.41040039 29.81225586 C-0.25983013 26.48191393 -0.34571606 24.31536309 -0.29296875 20.60546875 C-0.28330078 19.40341797 -0.27363281 18.20136719 -0.26367188 16.96289062 C-0.23853516 15.71701172 -0.21339844 14.47113281 -0.1875 13.1875 C-0.17396484 11.92228516 -0.16042969 10.65707031 -0.14648438 9.35351562 C-0.11118318 6.23524357 -0.06186819 3.11783958 0 0 Z " fill="#92895F" transform="translate(299,181)"/>
<path d="M0 0 C3.5662868 1.75072261 5.42274043 2.97667621 7.375 6.4375 C8.02085426 9.08550246 8.22615973 11.28608328 8 14 C7 15 7 15 3.40234375 15.09765625 C1.91403133 15.0909822 0.42573568 15.07902183 -1.0625 15.0625 C-2.20041992 15.05573242 -2.20041992 15.05573242 -3.36132812 15.04882812 C-5.24091871 15.0370068 -7.12046899 15.01907078 -9 15 C-9 15.66 -9 16.32 -9 17 C-8.15695312 16.90460938 -7.31390625 16.80921875 -6.4453125 16.7109375 C-5.34960938 16.60007813 -4.25390625 16.48921875 -3.125 16.375 C-1.48917969 16.20097656 -1.48917969 16.20097656 0.1796875 16.0234375 C1.11039062 16.01570313 2.04109375 16.00796875 3 16 C5 18 5 18 5 22 C0.36915174 24.41190013 -2.92941281 25.54604208 -8.13671875 24.65625 C-11.22313245 23.56921121 -12.96180673 21.4705373 -15 19 C-15.33 18.67 -15.66 18.34 -16 18 C-16.52263424 13.61733856 -17.02371348 8.98248992 -14.953125 4.97265625 C-10.55887345 -0.31336987 -6.54164186 -0.79159364 0 0 Z M-9 7 C-9 7.66 -9 8.32 -9 9 C-6.03 9 -3.06 9 0 9 C-0.33 8.01 -0.66 7.02 -1 6 C-5.14093698 5.79029441 -5.14093698 5.79029441 -9 7 Z " fill="#705733" transform="translate(484,192)"/>
<path d="M0 0 C15 0 15 0 20 3 C22.88868756 7.3828363 23.56796579 10.79364695 23 16 C21.352113 19.62535141 19.58884581 22.20557709 16 24 C12.95266181 24.24252172 10.06663661 24.13529279 7 24 C6.67 27.63 6.34 31.26 6 35 C4.02 35 2.04 35 0 35 C0 23.45 0 11.9 0 0 Z M6 7 C4.74590978 12.36208553 4.74590978 12.36208553 6.0625 17.5 C7.99799068 19.24317123 7.99799068 19.24317123 11 19.5 C14.0248469 19.26399835 14.0248469 19.26399835 15.875 17.375 C17.34922491 14.26274741 17.56746409 12.40478455 17 9 C14.79511741 6.53583866 14.79511741 6.53583866 12 5 C8.81509993 4.7226499 8.81509993 4.7226499 6 7 Z " fill="#8F8A60" transform="translate(331,192)"/>
<path d="M0 0 C3.47794735 1.73897368 5.42256446 3.00261134 7.375 6.375 C8 9 8 9 8 15 C2.39 15 -3.22 15 -9 15 C-8.18016967 17.22385861 -8.18016967 17.22385861 -5.8125 17.75 C-2.41560571 18.05194616 -0.14413009 17.24302818 3 16 C3 16.66 3 17.32 3 18 C3.99 18.33 4.98 18.66 6 19 C5 22 5 22 1.875 23.75 C-2.07066846 25.26694411 -4.88866409 25.19602499 -9 24 C-12.4092638 21.87016778 -14.69649215 19.91052355 -16 16 C-16.34231315 10.69414624 -16.53140599 7.26204172 -13 3 C-9.0467821 -0.2755234 -4.98657002 -0.87826086 0 0 Z M-9 7 C-9 7.66 -9 8.32 -9 9 C-5.7 9 -2.4 9 1 9 C-0.28965176 7.62437146 -1.62689293 6.29233607 -3 5 C-5.46278801 5 -6.85224119 5.85452863 -9 7 Z " fill="#816439" transform="translate(229,192)"/>
<path d="M0 0 C3.72967936 2.34831664 5.56775975 4.03728307 7.375 8.0625 C8 11 8 11 8 15 C2.39 15 -3.22 15 -9 15 C-8.67 15.66 -8.34 16.32 -8 17 C-4.60867549 17.84172822 -4.60867549 17.84172822 -1 18 C-0.01 17.34 0.98 16.68 2 16 C3.32 16.99 4.64 17.98 6 19 C5 22 5 22 3.36328125 22.984375 C-2.35846852 25.12049491 -5.90703641 25.22279956 -11.6875 22.9375 C-15.03191802 20.13542004 -16.39492375 17.31770462 -17 13 C-16.42401077 8.05136015 -14.91599899 4.87339439 -11.3125 1.4375 C-7.31122561 -0.29890209 -4.28421367 -0.98144337 0 0 Z M-9 7 C-9 7.66 -9 8.32 -9 9 C-5.7 9 -2.4 9 1 9 C0.67 8.01 0.34 7.02 0 6 C-4.74076549 4.81301999 -4.74076549 4.81301999 -9 7 Z " fill="#514327" transform="translate(276,192)"/>
<path d="M0 0 C2.3125 0.1875 2.3125 0.1875 5 1 C6.625 3.375 6.625 3.375 8 6 C8.99 6.99 9.98 7.98 11 9 C12.65 6.03 14.3 3.06 16 0 C18.475 0.495 18.475 0.495 21 1 C20.37939974 6.18527846 18.76253846 10.54537571 16.75 15.3125 C16.43571045 16.06289551 16.1214209 16.81329102 15.79760742 17.58642578 C9.46217534 32.49237483 9.46217534 32.49237483 4 36 C1.375 36.375 1.375 36.375 -1 36 C-1.66 35.01 -2.32 34.02 -3 33 C-2.34 31.68 -1.68 30.36 -1 29 C0.65 29 2.3 29 4 29 C6.09700095 23.98543251 6.48032178 20.80261824 4.5390625 15.72265625 C3.57701588 13.40658149 2.56333302 11.12678685 1.50366211 8.85375977 C-1.08691989 3.26075966 -1.08691989 3.26075966 0 0 Z " fill="#6D4F2B" transform="translate(493,192)"/>
<path d="M0 0 C1.31613281 -0.04898438 2.63226563 -0.09796875 3.98828125 -0.1484375 C8.55453144 0.49768449 9.92348944 1.75533889 12.6875 5.375 C14.20594899 8.89102023 13.82033573 12.78176142 13.8125 16.5625 C13.81636719 18.44001953 13.81636719 18.44001953 13.8203125 20.35546875 C13.6875 23.375 13.6875 23.375 12.6875 24.375 C10.7075 24.375 8.7275 24.375 6.6875 24.375 C6.3575 18.435 6.0275 12.495 5.6875 6.375 C0.17186516 6.69688877 0.17186516 6.69688877 -1.3125 8.375 C-1.52313107 10.87916935 -1.68822077 13.36640081 -1.8125 15.875 C-2.17736486 23.23986486 -2.17736486 23.23986486 -3.3125 24.375 C-5.8125 24.5 -5.8125 24.5 -8.3125 24.375 C-9.3125 23.375 -9.3125 23.375 -9.42602539 21.24194336 C-9.42078857 20.32550049 -9.41555176 19.40905762 -9.41015625 18.46484375 C-9.40693359 17.47548828 -9.40371094 16.48613281 -9.40039062 15.46679688 C-9.39201172 14.42587891 -9.38363281 13.38496094 -9.375 12.3125 C-9.37048828 11.26771484 -9.36597656 10.22292969 -9.36132812 9.14648438 C-9.34949913 6.5559334 -9.33301689 3.96549441 -9.3125 1.375 C-6.3254054 -0.1185473 -3.2751552 0.06868772 0 0 Z " fill="#9B8455" transform="translate(451.3125,191.625)"/>
<path d="M0 0 C2.31 0 4.62 0 7 0 C7.19947428 3.95782306 7.38235481 7.91625379 7.5625 11.875 C7.61857422 12.98359375 7.67464844 14.0921875 7.73242188 15.234375 C8.02790754 21.93205011 7.90159021 28.35324008 7 35 C5.02 35 3.04 35 1 35 C0.67 28.73 0.34 22.46 0 16 C-2.14721684 19.57869473 -4.200476 23.14754463 -6.1875 26.8125 C-6.71730469 27.78832031 -7.24710937 28.76414063 -7.79296875 29.76953125 C-8.19128906 30.50558594 -8.58960938 31.24164063 -9 32 C-9.99 30.68 -10.98 29.36 -12 28 C-10.68 27.34 -9.36 26.68 -8 26 C-8.33 25.01 -8.66 24.02 -9 23 C-9.99 23.33 -10.98 23.66 -12 24 C-10.42195846 18.39523177 -7.73583615 13.64949374 -4.875 8.625 C-4.17310547 7.37783203 -4.17310547 7.37783203 -3.45703125 6.10546875 C-2.30929451 4.06765046 -1.15686718 2.03264431 0 0 Z M0 12 C1 15 1 15 1 15 Z " fill="#84784D" transform="translate(403,181)"/>
<path d="M0 0 C4.16104079 1.30542456 6.32873266 2.96045358 8.5625 6.625 C10.07538931 10.04160835 10.1021236 12.17038694 9.0625 15.75 C7.42054129 19.65301661 5.82370864 21.96068872 2 24 C-2.46096371 25.40096381 -5.08867167 25.4642616 -9.3125 23.3125 C-12.39917905 20.65652035 -14.67171533 18.68245893 -15.46875 14.59765625 C-15.55355167 7.71812108 -15.55355167 7.71812108 -12.6875 4 C-8.02887236 0.53311431 -5.86553736 -0.49707944 0 0 Z M-7.1875 6.625 C-9.22566095 8.91179913 -9.22566095 8.91179913 -9.5 12 C-9.20090771 15.05984485 -9.20090771 15.05984485 -7.375 17.4375 C-5.03852041 19.27684143 -5.03852041 19.27684143 -1.875 19.0625 C1.14237606 18.27622498 1.14237606 18.27622498 2.4375 15.75 C3.06869704 12.66414781 3.08886489 10.95549041 2 8 C-1.14027983 4.96439616 -3.40745565 3.81696705 -7.1875 6.625 Z " fill="#84744C" transform="translate(430,192)"/>
<path d="M0 0 C1.98 0 3.96 0 6 0 C7 1 7 1 7.11352539 3.68383789 C7.10828857 4.85164795 7.10305176 6.01945801 7.09765625 7.22265625 C7.09443359 8.48271484 7.09121094 9.74277344 7.08789062 11.04101562 C7.07953403 12.38151109 7.07106907 13.72200588 7.0625 15.0625 C7.0574866 16.40689942 7.05292342 17.7513006 7.04882812 19.09570312 C7.03699497 22.39715433 7.01905886 25.6985826 7 29 C12.28 29 17.56 29 23 29 C23 30.98 23 32.96 23 35 C15.41 35 7.82 35 0 35 C0 23.45 0 11.9 0 0 Z " fill="#503A1B" transform="translate(188,181)"/>
<path d="M0 0 C0 4.29 0 8.58 0 13 C-2.475 12.505 -2.475 12.505 -5 12 C-6.97168709 13.43353045 -6.97168709 13.43353045 -8.5625 15.5 C-10.25390625 17.53125 -10.25390625 17.53125 -12 19 C-15.12004467 18.75188512 -17.13278762 17.43360619 -20 16 C-22.31 18.64 -24.62 21.28 -27 24 C-28.65 22.35 -30.3 20.7 -32 19 C-31.36191406 18.30132812 -30.72382812 17.60265625 -30.06640625 16.8828125 C-29.24011719 15.97273437 -28.41382812 15.06265625 -27.5625 14.125 C-26.32693359 12.76761719 -26.32693359 12.76761719 -25.06640625 11.3828125 C-22.99092058 9.18862073 -22.99092058 9.18862073 -22 7 C-18.85262818 7.69941596 -15.97411124 8.76078698 -13 10 C-12.34 9.01 -11.68 8.02 -11 7 C-11.66 6.01 -12.32 5.02 -13 4 C-11.39850114 3.32694982 -9.79368971 2.66177773 -8.1875 2 C-7.29417969 1.62875 -6.40085938 1.2575 -5.48046875 0.875 C-3 0 -3 0 0 0 Z " fill="#A3965F" transform="translate(151,193)"/>
<path d="M0 0 C2.32421875 0.15234375 2.32421875 0.15234375 5 1 C6.58203125 3.50390625 6.58203125 3.50390625 7.8125 6.5625 C8.23144531 7.57441406 8.65039062 8.58632812 9.08203125 9.62890625 C9.38496094 10.41136719 9.68789062 11.19382813 10 12 C11.61494773 9.5775784 12.67043238 7.50904533 13.8125 4.875 C15.62747675 1.135463 15.62747675 1.135463 18.75 0 C19.4925 0 20.235 0 21 0 C22 2 22 2 21.28735352 4.24658203 C20.90506592 5.15778809 20.52277832 6.06899414 20.12890625 7.0078125 C19.71962891 7.99394531 19.31035156 8.98007813 18.88867188 9.99609375 C18.45103516 11.02863281 18.01339844 12.06117188 17.5625 13.125 C17.12873047 14.16527344 16.69496094 15.20554688 16.24804688 16.27734375 C15.17224578 18.85453757 14.08930622 21.42849195 13 24 C11.35 24 9.7 24 8 24 C6.46350798 20.56928818 4.94855877 17.12948082 3.4375 13.6875 C2.99986328 12.71103516 2.56222656 11.73457031 2.11132812 10.72851562 C1.70205078 9.79072266 1.29277344 8.85292969 0.87109375 7.88671875 C0.48880615 7.02264404 0.10651855 6.15856934 -0.28735352 5.26831055 C-1 3 -1 3 0 0 Z " fill="#796641" transform="translate(238,192)"/>
<path d="M0 0 C1.98 0 3.96 0 6 0 C6 11.88 6 23.76 6 36 C4.02 36 2.04 36 0 36 C0 24.12 0 12.24 0 0 Z " fill="#A0905F" transform="translate(287,180)"/>
<path d="M0 0 C4.3942304 -0.4308069 6.32859745 -0.52544547 9.875 2.25 C13.36890106 6.77151902 13.13670244 10.54107407 13.125 16.1875 C13.12886719 18.06501953 13.12886719 18.06501953 13.1328125 19.98046875 C13 23 13 23 12 24 C10.02 24 8.04 24 6 24 C5.67 18.06 5.34 12.12 5 6 C-0.46084261 6.60788553 -0.46084261 6.60788553 -3 8 C-1.95125002 5.37812506 -1.35068687 4.20628639 1.125 2.75 C1.74375 2.5025 2.3625 2.255 3 2 C2.01 1.34 1.02 0.68 0 0 Z " fill="#4A3C22" transform="translate(452,192)"/>
<path d="M0 0 C3.81313241 0.42368138 7.44525735 1.57810294 11 3 C13 6 13 6 13 13 C7.06 13.33 1.12 13.66 -5 14 C-5.33 14.66 -5.66 15.32 -6 16 C-6.66 16 -7.32 16 -8 16 C-8.33 13.69 -8.66 11.38 -9 9 C-8.34 9 -7.68 9 -7 9 C-7 7.68 -7 6.36 -7 5 C-6.34 5 -5.68 5 -5 5 C-5 6.32 -5 7.64 -5 9 C-0.71 9 3.58 9 8 9 C7.24849977 5.72226496 7.24849977 5.72226496 4 4 C2.01200182 3.29835358 0.01301483 2.62627128 -2 2 C-1.34 1.34 -0.68 0.68 0 0 Z " fill="#C4AC6F" transform="translate(270,193)"/>
<path d="M0 0 C1.98 0 3.96 0 6 0 C6 1.32 6 2.64 6 4 C6.66 4 7.32 4 8 4 C8 5.65 8 7.3 8 9 C6.68 8.67 5.36 8.34 4 8 C4 16.25 4 24.5 4 33 C2.68 33 1.36 33 0 33 C0 22.11 0 11.22 0 0 Z " fill="#E3D795" transform="translate(371,182)"/>
<path d="M0 0 C0.33 0 0.66 0 1 0 C1.33 3.3 1.66 6.6 2 10 C3.32 10.33 4.64 10.66 6 11 C5.67 9.68 5.34 8.36 5 7 C10.94 7 16.88 7 23 7 C23 7.33 23 7.66 23 8 C17.72 8 12.44 8 7 8 C7 8.66 7 9.32 7 10 C7.84304688 9.90460938 8.68609375 9.80921875 9.5546875 9.7109375 C10.65039062 9.60007813 11.74609375 9.48921875 12.875 9.375 C14.51082031 9.20097656 14.51082031 9.20097656 16.1796875 9.0234375 C17.11039062 9.01570312 18.04109375 9.00796875 19 9 C21 11 21 11 21 15 C16.36915174 17.41190013 13.07058719 18.54604208 7.86328125 17.65625 C4.77686755 16.56921121 3.03819327 14.4705373 1 12 C0.67 11.67 0.34 11.34 0 11 C-0.07226502 9.14712498 -0.0838122 7.29166122 -0.0625 5.4375 C-0.05347656 4.42558594 -0.04445313 3.41367188 -0.03515625 2.37109375 C-0.02355469 1.58863281 -0.01195312 0.80617187 0 0 Z " fill="#614C2E" transform="translate(468,199)"/>
<path d="M0 0 C2.45466341 0.37364855 3.68866776 0.65230132 5.37109375 2.53125 C7.5775974 6.6047952 8.39920081 9.21422872 7.0625 13.75 C5.42054129 17.65301661 3.82370864 19.96068872 0 22 C-2.78872449 22.71863285 -5.07388353 22.90406175 -8 23 C-8.66 22.34 -9.32 21.68 -10 21 C-6.535 20.505 -6.535 20.505 -3 20 C-3 19.34 -3 18.68 -3 18 C-5.31 17.67 -7.62 17.34 -10 17 C-9.67 16.34 -9.34 15.68 -9 15 C-8.071875 15.226875 -7.14375 15.45375 -6.1875 15.6875 C-3.11268604 16.28027878 -3.11268604 16.28027878 -1.0625 15 C0.60518931 11.86082011 -0.26382922 9.37411607 -1 6 C-1.33 5.34 -1.66 4.68 -2 4 C-1.34 4 -0.68 4 0 4 C0 2.68 0 1.36 0 0 Z " fill="#AD955D" transform="translate(432,194)"/>
<path d="M0 0 C1.32 0 2.64 0 4 0 C3.8816491 4.07530467 3.75739376 8.15038235 3.62768555 12.2253418 C3.58439782 13.61135983 3.54271836 14.99742906 3.50268555 16.38354492 C3.44483416 18.37691798 3.38070224 20.37010565 3.31640625 22.36328125 C3.27974854 23.56251221 3.24309082 24.76174316 3.20532227 25.99731445 C3 29 3 29 2 32 C2.50015625 31.67257813 3.0003125 31.34515625 3.515625 31.0078125 C6.91792104 29.6276358 10.14350651 29.78637162 13.75 29.875 C14.79607422 29.88853516 14.79607422 29.88853516 15.86328125 29.90234375 C17.57566958 29.92580112 19.28788004 29.96166896 21 30 C21 30.99 21 31.98 21 33 C14.07 33 7.14 33 0 33 C0 22.11 0 11.22 0 0 Z " fill="#83633B" transform="translate(189,182)"/>
<path d="M0 0 C2 3 2 3 2 9 C-3.61 9 -9.22 9 -15 9 C-14.18016967 11.22385861 -14.18016967 11.22385861 -11.8125 11.75 C-8.41560571 12.05194616 -6.14413009 11.24302818 -3 10 C-3 10.66 -3 11.32 -3 12 C-2.01 12.33 -1.02 12.66 0 13 C-1 16 -1 16 -4.125 17.75 C-8.07066846 19.26694411 -10.88866409 19.19602499 -15 18 C-17.41569629 16.52078509 -18.98388031 15.06529334 -21 13 C-21 12.01 -21 11.02 -21 10 C-16.37183267 7.64417935 -12.24465865 7.76478531 -7.1875 7.875 C-6.00510742 7.88853516 -6.00510742 7.88853516 -4.79882812 7.90234375 C-2.86575334 7.92577496 -0.9328362 7.96164162 1 8 C0.67 5.36 0.34 2.72 0 0 Z " fill="#574325" transform="translate(235,198)"/>
<path d="M0 0 C1.98 0 3.96 0 6 0 C6 10.89 6 21.78 6 33 C4.68 33 3.36 33 2 33 C2 25.08 2 17.16 2 9 C1.01 9 0.02 9 -1 9 C-1 8.34 -1 7.68 -1 7 C-0.34 7 0.32 7 1 7 C0.67 4.69 0.34 2.38 0 0 Z " fill="#D0BE7D" transform="translate(403,182)"/>
<path d="M0 0 C1.32 0 2.64 0 4 0 C5.61115777 3.22231554 4.96079976 6.62935098 4.83984375 10.17578125 C5.01021085 13.18005966 5.73969729 15.28664241 7 18 C6.34 18.66 5.68 19.32 5 20 C4.53603307 22.89223503 4.53603307 22.89223503 4.375 26.125 C4.30023438 27.22070312 4.22546875 28.31640625 4.1484375 29.4453125 C4.09945313 30.28835937 4.05046875 31.13140625 4 32 C2.68 32 1.36 32 0 32 C0 21.44 0 10.88 0 0 Z " fill="#E5DA97" transform="translate(332,194)"/>
<path d="M0 0 C0.99 0.33 1.98 0.66 3 1 C2.56055082 12.95301782 -0.85171732 19.39394863 -9 28 C-9.66 27.67 -10.32 27.34 -11 27 C-10.67 26.34 -10.34 25.68 -10 25 C-11.32 25.33 -12.64 25.66 -14 26 C-13.278125 25.360625 -12.55625 24.72125 -11.8125 24.0625 C-6.01102584 18.19528676 -3.46330372 11.0789458 -1.578125 3.1875 C-1 1 -1 1 0 0 Z " fill="#614B2B" transform="translate(165,203)"/>
<path d="M0 0 C-0.265625 1.86328125 -0.265625 1.86328125 -1 4 C-2.671875 5.23046875 -2.671875 5.23046875 -4.75 6.1875 C-5.42546875 6.51105469 -6.1009375 6.83460938 -6.796875 7.16796875 C-11.00545402 8.75737891 -15.02276767 9.15605876 -19.5 9.1875 C-20.87671875 9.20876953 -20.87671875 9.20876953 -22.28125 9.23046875 C-25.25574509 8.97832046 -27.3633859 8.3972198 -30 7 C-30.33 6.01 -30.66 5.02 -31 4 C-29.91203125 4.04640625 -28.8240625 4.0928125 -27.703125 4.140625 C-19.22723316 4.38812452 -12.23715981 4.04993401 -4.22265625 0.875 C-2 0 -2 0 0 0 Z " fill="#887B51" transform="translate(155,228)"/>
<path d="M0 0 C1.32 0 2.64 0 4 0 C4 8.91 4 17.82 4 27 C2.68 26.67 1.36 26.34 0 26 C0 17.42 0 8.84 0 0 Z " fill="#D5C280" transform="translate(300,182)"/>
<path d="M0 0 C2.31 0 4.62 0 7 0 C7 0.33 7 0.66 7 1 C5.02 1 3.04 1 1 1 C1 11.89 1 22.78 1 34 C2.32 34 3.64 34 5 34 C5 26.08 5 18.16 5 10 C5.66 10 6.32 10 7 10 C7.66 11.98 8.32 13.96 9 16 C8.67 16 8.34 16 8 16 C7.93941406 17.28777344 7.87882812 18.57554687 7.81640625 19.90234375 C7.73201753 21.58074159 7.6473687 23.25912636 7.5625 24.9375 C7.52318359 25.78763672 7.48386719 26.63777344 7.44335938 27.51367188 C7.40146484 28.32255859 7.35957031 29.13144531 7.31640625 29.96484375 C7.26141968 31.08814087 7.26141968 31.08814087 7.20532227 32.23413086 C7 34 7 34 6 35 C4.00041636 35.04080783 1.99954746 35.04254356 0 35 C-1.0132933 30.88882685 -1.04062543 27.17188615 -0.87890625 22.94921875 C-0.85529526 22.29041214 -0.83168427 21.63160553 -0.80735779 20.95283508 C-0.73124327 18.86414178 -0.64699771 16.77586926 -0.5625 14.6875 C-0.50922687 13.26499403 -0.45648689 11.84246799 -0.40429688 10.41992188 C-0.27570006 6.94636091 -0.13981289 3.47312966 0 0 Z " fill="#5E5938" transform="translate(370,181)"/>
<path d="M0 0 C1.9375 0.375 1.9375 0.375 4 1 C4.33 1.66 4.66 2.32 5 3 C4.01 3.99 3.02 4.98 2 6 C2.99 6.99 3.98 7.98 5 9 C4.40703125 9.09152344 3.8140625 9.18304688 3.203125 9.27734375 C0.47465343 10.17232113 -0.47125041 11.33906301 -2.25 13.5625 C-2.77078125 14.20316406 -3.2915625 14.84382812 -3.828125 15.50390625 C-4.40820312 16.24447266 -4.40820312 16.24447266 -5 17 C-6.65 15.35 -8.3 13.7 -10 12 C-9.36191406 11.30132812 -8.72382812 10.60265625 -8.06640625 9.8828125 C-7.24011719 8.97273437 -6.41382812 8.06265625 -5.5625 7.125 C-4.73878906 6.22007812 -3.91507812 5.31515625 -3.06640625 4.3828125 C-0.99092058 2.18862073 -0.99092058 2.18862073 0 0 Z " fill="#A18753" transform="translate(129,200)"/>
<path d="M0 0 C1.32 0 2.64 0 4 0 C4.05785647 3.95827235 4.09354717 7.9164367 4.125 11.875 C4.14175781 13.00292969 4.15851563 14.13085938 4.17578125 15.29296875 C4.18222656 16.36933594 4.18867188 17.44570312 4.1953125 18.5546875 C4.20578613 19.54968262 4.21625977 20.54467773 4.22705078 21.56982422 C4 24 4 24 2 26 C1.34 25.67 0.68 25.34 0 25 C0 16.75 0 8.5 0 0 Z " fill="#E4D691" transform="translate(322,182)"/>
<path d="M0 0 C2.12472576 -0.05386629 4.24983652 -0.09273071 6.375 -0.125 C7.55835938 -0.14820313 8.74171875 -0.17140625 9.9609375 -0.1953125 C13 0 13 0 15 2 C15.27240673 5.01826653 15.08675125 7.96370622 15 11 C9.72 11 4.44 11 -1 11 C-1 10.34 -1 9.68 -1 9 C2.96 9 6.92 9 11 9 C10.4260261 4.79819816 10.4260261 4.79819816 7 3 C4.94290404 2.75944532 4.94290404 2.75944532 2.8125 2.875 C1.554375 2.91625 0.29625 2.9575 -1 3 C-0.67 2.01 -0.34 1.02 0 0 Z " fill="#9F7D48" transform="translate(220,194)"/>
<path d="M0 0 C2.32421875 0.16015625 2.32421875 0.16015625 5 1 C6.58203125 3.43359375 6.58203125 3.43359375 7.8125 6.4375 C8.44091797 7.92056641 8.44091797 7.92056641 9.08203125 9.43359375 C10 12 10 12 10 14 C9.34 14 8.68 14 8 14 C7.67 15.65 7.34 17.3 7 19 C4.39417146 16.39417146 3.24457947 13.39503316 1.8125 10.0625 C1.52697266 9.42892578 1.24144531 8.79535156 0.94726562 8.14257812 C-1.1198489 3.3595467 -1.1198489 3.3595467 0 0 Z " fill="#917648" transform="translate(238,192)"/>
<path d="M0 0 C1.98 0 3.96 0 6 0 C6.01981934 0.70608398 6.03963867 1.41216797 6.06005859 2.13964844 C6.15540415 5.34346994 6.26504513 8.54664801 6.375 11.75 C6.4059375 12.86117187 6.436875 13.97234375 6.46875 15.1171875 C6.50742187 16.18710938 6.54609375 17.25703125 6.5859375 18.359375 C6.6173584 19.34389648 6.6487793 20.32841797 6.68115234 21.34277344 C7.00470069 24.03917484 7.53457006 25.72740812 9 28 C10.93981618 28.90609992 10.93981618 28.90609992 13.125 29.25 C14.40375 29.4975 15.6825 29.745 17 30 C17 30.33 17 30.66 17 31 C15.58297487 30.85769192 14.1663904 30.71099254 12.75 30.5625 C11.56664062 30.44068359 11.56664062 30.44068359 10.359375 30.31640625 C8.17635361 30.02365007 6.1226818 29.57935581 4 29 C4.66 30.32 5.32 31.64 6 33 C3.68049522 32.07219809 2.28083477 31.42216991 0.87939453 29.31542969 C-0.2528783 26.33417606 -0.22537967 23.89024535 -0.1953125 20.703125 C-0.18886719 19.49785156 -0.18242187 18.29257813 -0.17578125 17.05078125 C-0.15064453 15.16939453 -0.15064453 15.16939453 -0.125 13.25 C-0.11597656 11.98027344 -0.10695313 10.71054688 -0.09765625 9.40234375 C-0.07409005 6.26803907 -0.04118832 3.13411459 0 0 Z M1 1 C1 9.58 1 18.16 1 27 C2.32 27.33 3.64 27.66 5 28 C5 19.09 5 10.18 5 1 C3.68 1 2.36 1 1 1 Z " fill="#6C6547" transform="translate(299,181)"/>
<path d="M0 0 C1.65 0.33 3.3 0.66 5 1 C4.41347648 5.48993869 3.2356462 9.22543184 1.4375 13.375 C0.98246094 14.43460938 0.52742188 15.49421875 0.05859375 16.5859375 C-0.29074219 17.38257813 -0.64007813 18.17921875 -1 19 C-1.33 18.01 -1.66 17.02 -2 16 C-1.33333333 14.66666667 -0.66666667 13.33333333 0 12 C0.16750414 9.33290931 0.16750414 9.33290931 0 7 C-0.99 8.485 -0.99 8.485 -2 10 C-2.66 10 -3.32 10 -4 10 C-4.33 11.32 -4.66 12.64 -5 14 C-7.67901932 11.68118495 -8.66204403 9.68185532 -9.6875 6.3125 C-9.93886719 5.50425781 -10.19023437 4.69601563 -10.44921875 3.86328125 C-10.63097656 3.24839844 -10.81273437 2.63351563 -11 2 C-7.98672434 3.50663783 -7.38943382 6.03166411 -6 9 C-3.59927045 6.11912454 -1.52708963 3.43595166 0 0 Z " fill="#694E2D" transform="translate(509,192)"/>
<path d="M0 0 C1.65 0.99 3.3 1.98 5 3 C4 6 4 6 2.36328125 6.984375 C-2.10076114 8.65095082 -5.30729074 9.59978725 -10 8 C-12.375 6.0625 -12.375 6.0625 -14 4 C-14 3.34 -14 2.68 -14 2 C-9.3125 2.78125 -9.3125 2.78125 -4.625 3.5625 C-3.75875 3.706875 -2.8925 3.85125 -2 4 C-1.34 2.68 -0.68 1.36 0 0 Z " fill="#948554" transform="translate(277,208)"/>
<path d="M0 0 C3.35595828 0.59927826 5.37801226 1.84622436 8 4 C6.61990379 7.33523252 5.15049348 9.18607951 2 11 C1.01 10.67 0.02 10.34 -1 10 C-1 9.67 -1 9.34 -1 9 C-3.31 8.67 -5.62 8.34 -8 8 C-5.88198913 4.71708314 -4.72923739 3.87015539 -1 3 C-0.67 2.01 -0.34 1.02 0 0 Z " fill="#C0B884" transform="translate(132,170)"/>
<path d="M0 0 C1 3 1 3 -0.07421875 5.59375 C-0.60660156 6.5528125 -1.13898438 7.511875 -1.6875 8.5 C-2.20699219 9.4590625 -2.72648437 10.418125 -3.26171875 11.40625 C-4.9854874 13.97834525 -6.36510757 15.41170157 -9 17 C-11.625 17.375 -11.625 17.375 -14 17 C-14.66 16.01 -15.32 15.02 -16 14 C-15.34 12.68 -14.68 11.36 -14 10 C-10.7 10 -7.4 10 -4 10 C-3.67 8.02 -3.34 6.04 -3 4 C-2.34 4 -1.68 4 -1 4 C-0.67 2.68 -0.34 1.36 0 0 Z " fill="#624A2A" transform="translate(506,211)"/>
<path d="M0 0 C0.99 0.495 0.99 0.495 2 1 C2 1.99 2 2.98 2 4 C3.32 4.33 4.64 4.66 6 5 C6 4.34 6 3.68 6 3 C6.66 3 7.32 3 8 3 C8.33 2.34 8.66 1.68 9 1 C9.66 2.32 10.32 3.64 11 5 C9.02 5.99 9.02 5.99 7 7 C7.33 8.98 7.66 10.96 8 13 C6.35 13.33 4.7 13.66 3 14 C-0.00559652 8.99067246 -0.29341888 5.67276511 0 0 Z " fill="#C4B379" transform="translate(385,202)"/>
<path d="M0 0 C4 2 4 2 5 3 C5.08631874 4.34267413 5.10706473 5.68974322 5.09765625 7.03515625 C5.09282227 8.24848633 5.09282227 8.24848633 5.08789062 9.48632812 C5.07951172 10.33646484 5.07113281 11.18660156 5.0625 12.0625 C5.05798828 12.91650391 5.05347656 13.77050781 5.04882812 14.65039062 C5.03700373 16.76695663 5.01906769 18.88348685 5 21 C3.68 21 2.36 21 1 21 C0.67 14.07 0.34 7.14 0 0 Z " fill="#A98D57" transform="translate(458,194)"/>
<path d="M0 0 C0.66666667 1.33333333 1.33333333 2.66666667 2 4 C2.53625 5.03125 3.0725 6.0625 3.625 7.125 C5 10 5 10 5 12 C7.31 12.33 9.62 12.66 12 13 C12.33 13.99 12.66 14.98 13 16 C4.20805369 16.60402685 4.20805369 16.60402685 0.375 14.6875 C-1.8425631 10.35317213 -1.48160762 5.77660014 -1 1 C-0.67 0.67 -0.34 0.34 0 0 Z " fill="#C4AA72" transform="translate(417,199)"/>
<path d="M0 0 C1.5 1.0625 1.5 1.0625 3 3 C3 5.31 3 7.62 3 10 C-2.94 10.33 -8.88 10.66 -15 11 C-15.33 11.66 -15.66 12.32 -16 13 C-16.66 13 -17.32 13 -18 13 C-18.33 10.69 -18.66 8.38 -19 6 C-18.34 6 -17.68 6 -17 6 C-17 4.68 -17 3.36 -17 2 C-16.34 2 -15.68 2 -15 2 C-15 3.32 -15 4.64 -15 6 C-10.71 6 -6.42 6 -2 6 C-2 6.33 -2 6.66 -2 7 C-6.29 7 -10.58 7 -15 7 C-15 7.66 -15 8.32 -15 9 C-9.39 9 -3.78 9 2 9 C2 7.68 2 6.36 2 5 C1.34 5 0.68 5 0 5 C0 3.35 0 1.7 0 0 Z " fill="#B1995D" transform="translate(280,196)"/>
<path d="M0 0 C4.96682232 -0.29216602 8.10349334 -0.24708889 12 3 C14.90940049 7.41426281 15.31378312 10.77028126 15 16 C14.67 16 14.34 16 14 16 C13.34 13.03 12.68 10.06 12 7 C11.34 7 10.68 7 10 7 C9.34 7.66 8.68 8.32 8 9 C7.62875 8.360625 7.2575 7.72125 6.875 7.0625 C4.41947207 4.36141928 2.55421195 4.31592995 -1 4 C-0.67 2.68 -0.34 1.36 0 0 Z " fill="#A9A372" transform="translate(339,192)"/>
<path d="M0 0 C0.33 0 0.66 0 1 0 C1.27771418 4.67948398 0.54837397 7.67583336 -1.5 11.875 C-1.9640625 12.84179688 -2.428125 13.80859375 -2.90625 14.8046875 C-3.44765625 15.89136719 -3.44765625 15.89136719 -4 17 C-4.66 17 -5.32 17 -6 17 C-6.33 18.98 -6.66 20.96 -7 23 C-7.99 23 -8.98 23 -10 23 C-9.67 21.35 -9.34 19.7 -9 18 C-8.34 18 -7.68 18 -7 18 C-7.061875 16.906875 -7.12375 15.81375 -7.1875 14.6875 C-7 11 -7 11 -5.6875 9.5 C-5.130625 9.005 -4.57375 8.51 -4 8 C-2.96157435 5.68351201 -1.9578025 3.35096976 -1 1 C-0.67 0.67 -0.34 0.34 0 0 Z " fill="#916631" transform="translate(509,198)"/>
<path d="M0 0 C0.99 0.33 1.98 0.66 3 1 C2.67 2.65 2.34 4.3 2 6 C5.96 6 9.92 6 14 6 C10.38863788 7.80568106 9.455469 8.24851563 5.75 8.125 C3.89375 8.063125 3.89375 8.063125 2 8 C2.33 9.65 2.66 11.3 3 13 C1.35 12.67 -0.3 12.34 -2 12 C-2.05395478 10.37536158 -2.09277195 8.75021459 -2.125 7.125 C-2.14820313 6.22007812 -2.17140625 5.31515625 -2.1953125 4.3828125 C-2 2 -2 2 0 0 Z " fill="#A5824C" transform="translate(471,197)"/>
<path d="M0 0 C3.98207639 0.51381631 4.45747309 0.67704932 6.875 3.5 C6.23691406 3.41621094 5.59882813 3.33242187 4.94140625 3.24609375 C4.11511719 3.14425781 3.28882813 3.04242188 2.4375 2.9375 C1.61378906 2.83308594 0.79007812 2.72867188 -0.05859375 2.62109375 C-0.74050781 2.58113281 -1.42242187 2.54117188 -2.125 2.5 C-2.455 2.83 -2.785 3.16 -3.125 3.5 C-1.145 4.16 0.835 4.82 2.875 5.5 C0.875 6.5 0.875 6.5 -1.6875 6.9375 C-2.8940625 7.2159375 -2.8940625 7.2159375 -4.125 7.5 C-4.455 8.16 -4.785 8.82 -5.125 9.5 C-3.6449159 9.38637738 -2.16589926 9.25877092 -0.6875 9.125 C0.13621094 9.05539063 0.95992188 8.98578125 1.80859375 8.9140625 C2.83146484 8.70910156 2.83146484 8.70910156 3.875 8.5 C4.205 7.84 4.535 7.18 4.875 6.5 C5.535 7.16 6.195 7.82 6.875 8.5 C6.545 9.16 6.215 9.82 5.875 10.5 C1.585 10.5 -2.705 10.5 -7.125 10.5 C-7.125 9.18 -7.125 7.86 -7.125 6.5 C-7.785 6.17 -8.445 5.84 -9.125 5.5 C-6.34875989 2.02969986 -4.46884201 0.13192154 0 0 Z " fill="#72603B" transform="translate(272.125,191.5)"/>
<path d="M0 0 C0 4.29 0 8.58 0 13 C-2.475 12.01 -2.475 12.01 -5 11 C-4.67 9.02 -4.34 7.04 -4 5 C-6.31 4.67 -8.62 4.34 -11 4 C-11.33 4.66 -11.66 5.32 -12 6 C-12 5.01 -12 4.02 -12 3 C-10.56445975 2.49440092 -9.1264798 1.9957251 -7.6875 1.5 C-6.88699219 1.2215625 -6.08648437 0.943125 -5.26171875 0.65625 C-3 0 -3 0 0 0 Z " fill="#735B36" transform="translate(151,193)"/>
<path d="M0 0 C0.66 0.66 1.32 1.32 2 2 C1.21753906 2.04898438 0.43507812 2.09796875 -0.37109375 2.1484375 C-1.38300781 2.22320312 -2.39492187 2.29796875 -3.4375 2.375 C-4.44683594 2.44460937 -5.45617187 2.51421875 -6.49609375 2.5859375 C-7.73552734 2.79089844 -7.73552734 2.79089844 -9 3 C-9.33 3.66 -9.66 4.32 -10 5 C-8.7625 4.773125 -7.525 4.54625 -6.25 4.3125 C-3.25356336 3.935289 -2.27500441 3.8624978 0.5 5.25 C2 7 2 7 2 10 C-2.29 10 -6.58 10 -11 10 C-11 8.35 -11 6.7 -11 5 C-11.99 5.33 -12.98 5.66 -14 6 C-13 3 -13 3 -10.9375 1.3125 C-6.95996113 -0.46469822 -4.34040496 -0.3557709 0 0 Z M-9 7 C-9 7.66 -9 8.32 -9 9 C-5.7 9 -2.4 9 1 9 C-0.28965176 7.62437146 -1.62689293 6.29233607 -3 5 C-5.46278801 5 -6.85224119 5.85452863 -9 7 Z " fill="#513B1F" transform="translate(229,192)"/>
<path d="M0 0 C2.45466341 0.37364855 3.68866776 0.65230132 5.37109375 2.53125 C7.07977468 5.68573787 8.15846744 7.86223939 7.65234375 11.49609375 C6.91874529 13.80010901 6.17490504 15.88609604 5 18 C4.34 18.33 3.68 18.66 3 19 C3 14.05 3 9.1 3 4 C2.34 4 1.68 4 1 4 C0.67 5.32 0.34 6.64 0 8 C-0.66 6.68 -1.32 5.36 -2 4 C-1.34 4 -0.68 4 0 4 C0 2.68 0 1.36 0 0 Z " fill="#83724E" transform="translate(432,194)"/>
<path d="M0 0 C2.625 1.0625 2.625 1.0625 3.65625 2.73828125 C5.3036382 6.78811057 6.09568172 9.78415319 4.625 14.0625 C3.965 14.0625 3.305 14.0625 2.625 14.0625 C1.965 12.0825 1.305 10.1025 0.625 8.0625 C-0.035 8.0625 -0.695 8.0625 -1.375 8.0625 C-2.035 5.7525 -2.695 3.4425 -3.375 1.0625 C-2.375 0.0625 -2.375 0.0625 0 0 Z " fill="#926A3B" transform="translate(495.375,191.9375)"/>
<path d="M0 0 C0.66 0.33 1.32 0.66 2 1 C1.67 9.91 1.34 18.82 1 28 C0.34 28 -0.32 28 -1 28 C-1.02886338 23.52084672 -1.04675187 19.04171709 -1.0625 14.5625 C-1.07087891 13.28310547 -1.07925781 12.00371094 -1.08789062 10.68554688 C-1.09111328 9.47060547 -1.09433594 8.25566406 -1.09765625 7.00390625 C-1.10289307 5.87799072 -1.10812988 4.7520752 -1.11352539 3.59204102 C-1 1 -1 1 0 0 Z " fill="#8F602C" transform="translate(191,183)"/>
<path d="M0 0 C0.82757813 0.16371094 1.65515625 0.32742187 2.5078125 0.49609375 C6.32194189 1.0464547 10.03353501 1.11089055 13.875 1.0625 C14.56335938 1.05798828 15.25171875 1.05347656 15.9609375 1.04882812 C17.64066335 1.03716336 19.32034375 1.01923271 21 1 C20.67 1.99 20.34 2.98 20 4 C16.96478606 5.01173798 14.80266921 5.16573514 11.625 5.1875 C10.22121094 5.20876953 10.22121094 5.20876953 8.7890625 5.23046875 C5.77985021 4.98180835 3.66439208 4.41692936 1 3 C0.67 2.01 0.34 1.02 0 0 Z " fill="#BEB67E" transform="translate(124,232)"/>
<path d="M0 0 C2.64465038 3.1254959 3.84414715 6.08788267 5 10 C5.66 10 6.32 10 7 10 C7 10.66 7 11.32 7 12 C5.0625 11.6875 5.0625 11.6875 3 11 C2.67 10.01 2.34 9.02 2 8 C1.67 9.98 1.34 11.96 1 14 C-1.52394612 10.87511433 -3.39701907 7.68685613 -5 4 C-4.67 3.34 -4.34 2.68 -4 2 C-2.515 2.99 -2.515 2.99 -1 4 C-0.67 2.68 -0.34 1.36 0 0 Z " fill="#998F61" transform="translate(384,195)"/>
<path d="M0 0 C-0.33 0.33 -0.66 0.66 -1 1 C-0.34 1.66 0.32 2.32 1 3 C0.48050781 3.25394531 -0.03898437 3.50789062 -0.57421875 3.76953125 C-4.48665708 5.70043889 -8.2958154 7.68488463 -12 10 C-12.66 9.34 -13.32 8.68 -14 8 C-10.98545834 3.88926137 -5.77470214 -2.88735107 0 0 Z " fill="#786B47" transform="translate(127,176)"/>
<path d="M0 0 C1.65 0.33 3.3 0.66 5 1 C5 3.97 5 6.94 5 10 C3.35 10 1.7 10 0 10 C-1.125 2.25 -1.125 2.25 0 0 Z " fill="#977F4C" transform="translate(246,206)"/>
<path d="M0 0 C0.66 0.99 1.32 1.98 2 3 C2.33 2.34 2.66 1.68 3 1 C3.66 1 4.32 1 5 1 C5.28883414 5.06534057 4.57875609 7.33058355 2.5 10.8125 C2.0359375 11.60269531 1.571875 12.39289063 1.09375 13.20703125 C0.55234375 14.09455078 0.55234375 14.09455078 0 15 C-0.99 13.68 -1.98 12.36 -3 11 C-1.68 10.34 -0.36 9.68 1 9 C0.67 8.01 0.34 7.02 0 6 C-0.99 6.33 -1.98 6.66 -3 7 C-1.125 1.125 -1.125 1.125 0 0 Z " fill="#958B5A" transform="translate(394,198)"/>
<path d="M0 0 C2.31 0.33 4.62 0.66 7 1 C7.33 2.32 7.66 3.64 8 5 C7.34 5 6.68 5 6 5 C5.896875 5.61875 5.79375 6.2375 5.6875 6.875 C5 9 5 9 2 11 C1.67 10.01 1.34 9.02 1 8 C1.66 8 2.32 8 3 8 C2.505 7.4225 2.01 6.845 1.5 6.25 C0 4 0 4 0 0 Z " fill="#927A49" transform="translate(140,197)"/>
<path d="M0 0 C0.33 0.66 0.66 1.32 1 2 C1.66 2 2.32 2 3 2 C3 3.65 3 5.3 3 7 C-2.28 7 -7.56 7 -13 7 C-13 6.34 -13 5.68 -13 5 C-9.04 5 -5.08 5 -1 5 C-0.67 3.35 -0.34 1.7 0 0 Z " fill="#A7824B" transform="translate(232,198)"/>
<path d="M0 0 C2.5625 -0.25 2.5625 -0.25 5 0 C6 1 6 1 6.125 3.5 C6 6 6 6 5 7 C3.33382885 7.04063832 1.66611905 7.042721 0 7 C-0.66 5.68 -1.32 4.36 -2 3 C-1.34 2.01 -0.68 1.02 0 0 Z " fill="#AAA573" transform="translate(359,209)"/>
<path d="M0 0 C1.9375 0.375 1.9375 0.375 4 1 C4.33 1.66 4.66 2.32 5 3 C4.01 3.99 3.02 4.98 2 6 C2.99 6.99 3.98 7.98 5 9 C3.35 9.33 1.7 9.66 0 10 C0 9.01 0 8.02 0 7 C-1.65 7.33 -3.3 7.66 -5 8 C-3.62845496 5.04590299 -2.01136276 2.55991624 0 0 Z " fill="#87774C" transform="translate(129,200)"/>
<path d="M0 0 C2.33425788 0.3267961 4.66742506 0.66140041 7 1 C8.093125 1.12375 9.18625 1.2475 10.3125 1.375 C13 2 13 2 15 5 C10.71 5 6.42 5 2 5 C1.34 3.35 0.68 1.7 0 0 Z " fill="#D3C483" transform="translate(303,210)"/>
<path d="M0 0 C4.95 0 9.9 0 15 0 C15 0.99 15 1.98 15 3 C10.38 3 5.76 3 1 3 C0.67 2.01 0.34 1.02 0 0 Z " fill="#926C3D" transform="translate(195,212)"/>
<path d="M0 0 C0.99 0 1.98 0 3 0 C2.56179109 4.55737263 2.14958831 7.57653445 -1 11 C-1 10.01 -1 9.02 -1 8 C-3.05270463 9.84188612 -3.05270463 9.84188612 -4 12 C-4.66 11.01 -5.32 10.02 -6 9 C-5.125 5.8125 -5.125 5.8125 -4 3 C-3.67 3.66 -3.34 4.32 -3 5 C-2.01 4.67 -1.02 4.34 0 4 C0 2.68 0 1.36 0 0 Z " fill="#AC9D69" transform="translate(400,191)"/>
<path d="M0 0 C0 3.77910478 -0.99703962 4.46106101 -3.5 7.1875 C-4.1496875 7.90292969 -4.799375 8.61835938 -5.46875 9.35546875 C-5.9740625 9.89816406 -6.479375 10.44085938 -7 11 C-7.66 10.67 -8.32 10.34 -9 10 C-8.67 9.34 -8.34 8.68 -8 8 C-9.32 8.33 -10.64 8.66 -12 9 C-7.25 4.125 -7.25 4.125 -5 3 C-4.34 3.33 -3.68 3.66 -3 4 C-3 3.34 -3 2.68 -3 2 C-2.01 1.34 -1.02 0.68 0 0 Z " fill="#635234" transform="translate(163,220)"/>
<path d="M0 0 C3.49004562 2.21036223 4.83897085 4.03315041 6 8 C6 9.32 6 10.64 6 12 C4.35 11.67 2.7 11.34 1 11 C1.33 9.68 1.66 8.36 2 7 C1.01 6.34 0.02 5.68 -1 5 C-0.67 3.35 -0.34 1.7 0 0 Z " fill="#53503C" transform="translate(161,188)"/>
<path d="M0 0 C1.093125 0.185625 2.18625 0.37125 3.3125 0.5625 C6.93624133 1.2578068 6.93624133 1.2578068 10 0 C10 0.99 10 1.98 10 3 C10.99 3.66 11.98 4.32 13 5 C8.11922548 7.44038726 5.47332932 8.46845421 0 7 C0 6.67 0 6.34 0 6 C3.465 5.505 3.465 5.505 7 5 C7 4.34 7 3.68 7 3 C4.69 2.67 2.38 2.34 0 2 C0 1.34 0 0.68 0 0 Z " fill="#675A38" transform="translate(422,209)"/>
<path d="M0 0 C0.99 0.33 1.98 0.66 3 1 C4.1577506 4.47325181 4.06866652 7.36067448 4 11 C2.68 10.67 1.36 10.34 0 10 C-0.19412181 8.52168779 -0.38012131 7.04230684 -0.5625 5.5625 C-0.66691406 4.73878906 -0.77132813 3.91507813 -0.87890625 3.06640625 C-0.91886719 2.38449219 -0.95882813 1.70257813 -1 1 C-0.67 0.67 -0.34 0.34 0 0 Z " fill="#EEE8A2" transform="translate(349,198)"/>
<path d="M0 0 C-1.375 1.5 -1.375 1.5 -3 3 C-3.66 3 -4.32 3 -5 3 C-5 2.34 -5 1.68 -5 1 C-6.32 1 -7.64 1 -9 1 C-9 7.93 -9 14.86 -9 22 C-9.33 22 -9.66 22 -10 22 C-10 14.74 -10 7.48 -10 0 C-6.7169902 -1.6415049 -3.57454967 -0.51888624 0 0 Z " fill="#372B17" transform="translate(452,193)"/>
<path d="M0 0 C1.32 0 2.64 0 4 0 C5.14947895 3.55293493 5.0868937 4.79976669 3.5625 8.3125 C2.7890625 9.6428125 2.7890625 9.6428125 2 11 C1.34 11 0.68 11 0 11 C0 7.37 0 3.74 0 0 Z " fill="#E6DE99" transform="translate(332,194)"/>
<path d="M0 0 C6.4 -0.36923077 6.4 -0.36923077 9.4375 1.5 C9.953125 1.995 10.46875 2.49 11 3 C10.67 3.66 10.34 4.32 10 5 C8.68 4.01 7.36 3.02 6 2 C6 2.66 6 3.32 6 4 C6.66 4.33 7.32 4.66 8 5 C7.06027344 5.19916016 7.06027344 5.19916016 6.1015625 5.40234375 C4.87566406 5.66724609 4.87566406 5.66724609 3.625 5.9375 C2.81289063 6.11152344 2.00078125 6.28554687 1.1640625 6.46484375 C-1.029463 6.92330693 -1.029463 6.92330693 -3 8 C-1.95125002 5.37812506 -1.35068687 4.20628639 1.125 2.75 C1.74375 2.5025 2.3625 2.255 3 2 C2.01 1.34 1.02 0.68 0 0 Z " fill="#625231" transform="translate(452,192)"/>
<path d="M0 0 C-1 3 -1 3 -3 4 C-7.05142119 4.25860135 -8.54337669 4.30441554 -12 2 C-11.67 1.34 -11.34 0.68 -11 0 C-7.08234111 -0.81309902 -3.82092412 -1.37553268 0 0 Z " fill="#9D7D44" transform="translate(488,211)"/>
<path d="M0 0 C0.66 0 1.32 0 2 0 C2.165 0.61875 2.33 1.2375 2.5 1.875 C4.90181375 5.27756949 8.00162134 5.22612026 12 6 C12 6.33 12 6.66 12 7 C10.58297487 6.85769192 9.1663904 6.71099254 7.75 6.5625 C6.56664062 6.44068359 6.56664062 6.44068359 5.359375 6.31640625 C3.17635361 6.02365007 1.1226818 5.57935581 -1 5 C-0.34 6.32 0.32 7.64 1 9 C-0.9375 8.25 -0.9375 8.25 -3 7 C-3.75 4.875 -3.75 4.875 -4 3 C-2.68 3.33 -1.36 3.66 0 4 C0 2.68 0 1.36 0 0 Z " fill="#7F754F" transform="translate(304,205)"/>
<path d="M0 0 C0.33 1.32 0.66 2.64 1 4 C1.99 4.33 2.98 4.66 4 5 C3.46930939 8.82097239 2.50298434 11.06171403 0 14 C0 12.02 0 10.04 0 8 C-0.99 8.33 -1.98 8.66 -3 9 C-2.01 6.03 -1.02 3.06 0 0 Z " fill="#725C38" transform="translate(251,199)"/>
<path d="M0 0 C0.66 0.33 1.32 0.66 2 1 C0.515 2.485 0.515 2.485 -1 4 C-0.67 4.99 -0.34 5.98 0 7 C-1.25 9.625 -1.25 9.625 -3 12 C-3.99 12.33 -4.98 12.66 -6 13 C-5.11375604 7.83024354 -4.07944772 3.5231594 0 0 Z " fill="#6C5638" transform="translate(115,180)"/>
<path d="M0 0 C0.33 0.66 0.66 1.32 1 2 C1.99 2.33 2.98 2.66 4 3 C3.67 3.99 3.34 4.98 3 6 C-1.62 5.01 -6.24 4.02 -11 3 C-10.67 2.34 -10.34 1.68 -10 1 C-9.278125 1.20625 -8.55625 1.4125 -7.8125 1.625 C-4.55358415 2.05952211 -2.91695496 1.41680669 0 0 Z " fill="#544028" transform="translate(231,208)"/>
<path d="M0 0 C0.33 1.65 0.66 3.3 1 5 C0.34 4.67 -0.32 4.34 -1 4 C-1 3.34 -1 2.68 -1 2 C-2.04800781 2.12568359 -2.04800781 2.12568359 -3.1171875 2.25390625 C-4.02726562 2.35574219 -4.93734375 2.45757812 -5.875 2.5625 C-6.77992188 2.66691406 -7.68484375 2.77132812 -8.6171875 2.87890625 C-11 3 -11 3 -13 2 C-13 1.34 -13 0.68 -13 0 C-11.58456585 -0.19658808 -10.16755969 -0.38187546 -8.75 -0.5625 C-7.96109375 -0.66691406 -7.1721875 -0.77132812 -6.359375 -0.87890625 C-3.99467126 -1.00027349 -2.2488963 -0.69633257 0 0 Z " fill="#392D20" transform="translate(488,209)"/>
<path d="M0 0 C1.5625 1.1875 1.5625 1.1875 3 3 C2.6875 5.6875 2.6875 5.6875 2 8 C0.68 8 -0.64 8 -2 8 C-2 5.69 -2 3.38 -2 1 C-1.34 0.67 -0.68 0.34 0 0 Z " fill="#BEB076" transform="translate(390,208)"/>
<path d="M0 0 C1.75 0.125 1.75 0.125 4 1 C6.25 4.0625 6.25 4.0625 8 7 C7.34 7 6.68 7 6 7 C5.34 7.66 4.68 8.32 4 9 C1.47740939 7.02579865 1.0070192 6.03254358 0.3125 2.8125 C0.209375 1.884375 0.10625 0.95625 0 0 Z " fill="#765D36" transform="translate(108,218)"/>
<path d="M0 0 C1.5 1.0625 1.5 1.0625 3 3 C3 5.31 3 7.62 3 10 C-2.61 10 -8.22 10 -14 10 C-14 9.67 -14 9.34 -14 9 C-8.72 9 -3.44 9 2 9 C2 7.68 2 6.36 2 5 C1.34 5 0.68 5 0 5 C0 3.35 0 1.7 0 0 Z " fill="#938358" transform="translate(280,196)"/>
<path d="M0 0 C1.4540625 0.0309375 1.4540625 0.0309375 2.9375 0.0625 C2.6075 1.0525 2.2775 2.0425 1.9375 3.0625 C2.9275 3.3925 3.9175 3.7225 4.9375 4.0625 C4.9375 4.3925 4.9375 4.7225 4.9375 5.0625 C1.9675 5.0625 -1.0025 5.0625 -4.0625 5.0625 C-4.0625 0.08290816 -4.0625 0.08290816 0 0 Z " fill="#AAA172" transform="translate(342.0625,210.9375)"/>
<path d="M0 0 C0.99 0 1.98 0 3 0 C3 0.66 3 1.32 3 2 C3.66 2 4.32 2 5 2 C5.33 3.32 5.66 4.64 6 6 C5.01 6.495 5.01 6.495 4 7 C1.96855359 6.06553465 -0.03533587 5.06775224 -2 4 C-1.34 2.68 -0.68 1.36 0 0 Z " fill="#E5DB93" transform="translate(132,203)"/>
<path d="M0 0 C3.01327566 1.50663783 3.61056618 4.03166411 5 7 C6.32 6.01 7.64 5.02 9 4 C8.34 6.31 7.68 8.62 7 11 C6.01 11 5.02 11 4 11 C3.32880451 9.5437455 2.66318193 8.08492133 2 6.625 C1.62875 5.81289062 1.2575 5.00078125 0.875 4.1640625 C0 2 0 2 0 0 Z " fill="#382F1D" transform="translate(498,194)"/>
<path d="M0 0 C2.34917898 2.15341406 3.82443004 4.21667937 5.25 7.0625 C5.60578125 7.75472656 5.9615625 8.44695312 6.328125 9.16015625 C6.54984375 9.76730469 6.7715625 10.37445313 7 11 C6.67 11.66 6.34 12.32 6 13 C5.34 12.67 4.68 12.34 4 12 C4 11.34 4 10.68 4 10 C3.34 10 2.68 10 2 10 C2 8.02 2 6.04 2 4 C1.34 4 0.68 4 0 4 C0 2.68 0 1.36 0 0 Z " fill="#968E5F" transform="translate(377,182)"/>
<path d="M0 0 C1.64826111 2.96687001 2.44271087 5.65626525 3 9 C1.68 9.33 0.36 9.66 -1 10 C-1.02689216 8.52093108 -1.04634621 7.04172517 -1.0625 5.5625 C-1.07410156 4.73878906 -1.08570313 3.91507813 -1.09765625 3.06640625 C-1 1 -1 1 0 0 Z " fill="#CAB373" transform="translate(417,199)"/>
<path d="M0 0 C2.3125 0.3125 2.3125 0.3125 5 1 C6.3921875 1.2784375 6.3921875 1.2784375 7.8125 1.5625 C8.534375 1.706875 9.25625 1.85125 10 2 C8.5 3.6875 8.5 3.6875 6 5 C3.17076078 4.35208262 0.61783117 3.23902204 -2 2 C-1.34 1.34 -0.68 0.68 0 0 Z " fill="#B9A36D" transform="translate(270,193)"/>
<path d="M0 0 C0 0.99 0 1.98 0 3 C0.309375 4.2375 0.309375 4.2375 0.625 5.5 C1 8 1 8 -1 11 C-1 10.01 -1 9.02 -1 8 C-1.66 8 -2.32 8 -3 8 C-3.66 9.32 -4.32 10.64 -5 12 C-4.52389341 7.00088076 -2.96837781 4.02167317 0 0 Z " fill="#4C371B" transform="translate(110,186)"/>
<path d="M0 0 C3.35595828 0.59927826 5.37801226 1.84622436 8 4 C7.67 4.66 7.34 5.32 7 6 C5.35 5.01 3.7 4.02 2 3 C1.67 3.66 1.34 4.32 1 5 C-0.98 5 -2.96 5 -5 5 C-4.360625 4.731875 -3.72125 4.46375 -3.0625 4.1875 C-0.66868314 3.11332248 -0.66868314 3.11332248 0 0 Z " fill="#6F6A45" transform="translate(132,170)"/>
<path d="M0 0 C1.67542976 0.28604898 3.34385343 0.61781233 5 1 C5 1.99 5 2.98 5 4 C4.01 4 3.02 4 2 4 C1.67 5.32 1.34 6.64 1 8 C0.34 5.69 -0.32 3.38 -1 1 C-0.67 0.67 -0.34 0.34 0 0 Z " fill="#644C31" transform="translate(493,192)"/>
<path d="M0 0 C1.32 0.33 2.64 0.66 4 1 C4 1.66 4 2.32 4 3 C4.66 3 5.32 3 6 3 C6 4.65 6 6.3 6 8 C3 6.25 3 6.25 0 4 C0 2.68 0 1.36 0 0 Z " fill="#E4D788" transform="translate(373,183)"/>
<path d="M0 0 C4.62 0 9.24 0 14 0 C11.52712828 2.47287172 9.44170547 2.5997244 6.0703125 3.14453125 C4 3 4 3 0 0 Z " fill="#6A5C3D" transform="translate(265,214)"/>
<path d="M0 0 C0 1.98 0 3.96 0 6 C-2.62187494 4.95125002 -3.79371361 4.35068687 -5.25 1.875 C-5.4975 1.25625 -5.745 0.6375 -6 0 C-3 -1 -3 -1 0 0 Z " fill="#A29062" transform="translate(422,209)"/>
<path d="M0 0 C3.68266103 0.59950296 7.34543185 1.24758891 11 2 C7.5647952 4.29013653 6.014669 4.17842973 2 4 C1.34 2.68 0.68 1.36 0 0 Z " fill="#B6A365" transform="translate(263,210)"/>
<path d="M0 0 C0.66 0.33 1.32 0.66 2 1 C1.34 1.66 0.68 2.32 0 3 C-0.64767793 5.57061311 -0.64767793 5.57061311 -1 8 C-1.66 8 -2.32 8 -3 8 C-3 10.31 -3 12.62 -3 15 C-4.48418893 12.64465669 -5.08599522 11.503932 -4.609375 8.7109375 C-4.18398438 7.55464844 -4.18398438 7.55464844 -3.75 6.375 C-3.47671875 5.59898437 -3.2034375 4.82296875 -2.921875 4.0234375 C-2 2 -2 2 0 0 Z " fill="#5E512F" transform="translate(264,194)"/>
<path d="M0 0 C0.99 0.33 1.98 0.66 3 1 C2.57316761 2.58624235 2.13303842 4.1689098 1.6875 5.75 C1.44386719 6.63171875 1.20023437 7.5134375 0.94921875 8.421875 C-0.02125331 11.05772505 -1.21005644 12.85407326 -3 15 C-2 10 -1 5 0 0 Z " fill="#574027" transform="translate(510,196)"/>
<path d="M0 0 C1.875 0.1875 1.875 0.1875 4 1 C5.25 3.5625 5.25 3.5625 6 6 C3.525 5.01 3.525 5.01 1 4 C0.67 5.32 0.34 6.64 0 8 C-0.66 6.68 -1.32 5.36 -2 4 C-1.34 4 -0.68 4 0 4 C0 2.68 0 1.36 0 0 Z " fill="#7F6A44" transform="translate(432,194)"/>
<path d="M0 0 C0 0.66 0 1.32 0 2 C-3.63 2 -7.26 2 -11 2 C-7.49890112 -1.50109888 -4.63591413 -1.15897853 0 0 Z " fill="#9C7D4C" transform="translate(232,213)"/>
<path d="M0 0 C1 3 1 3 1.5 6.5625 C1.79473089 9.85097245 1.79473089 9.85097245 3 12 C1.68 12 0.36 12 -1 12 C-1 11.34 -1 10.68 -1 10 C-1.66 10 -2.32 10 -3 10 C-2.01 6.7 -1.02 3.4 0 0 Z " fill="#81794D" transform="translate(336,199)"/>
<path d="M0 0 C5.80512153 0.14105903 5.80512153 0.14105903 8.02734375 2.36328125 C1.59234375 2.85828125 1.59234375 2.85828125 -4.97265625 3.36328125 C-1.97265625 0.36328125 -1.97265625 0.36328125 0 0 Z " fill="#5E492E" transform="translate(222.97265625,191.63671875)"/>
<path d="M0 0 C1.9451 2.91765 2.45276317 4.62537285 3 8 C2.01 7.67 1.02 7.34 0 7 C0.33 8.32 0.66 9.64 1 11 C-0.5 9.6875 -0.5 9.6875 -2 8 C-2 7.01 -2 6.02 -2 5 C-1.34 5 -0.68 5 0 5 C0 3.35 0 1.7 0 0 Z " fill="#543B1F" transform="translate(108,211)"/>
<path d="M0 0 C1.98 0.495 1.98 0.495 4 1 C3.34 3.31 2.68 5.62 2 8 C1.01 7.67 0.02 7.34 -1 7 C-0.67 4.69 -0.34 2.38 0 0 Z " fill="#AF935C" transform="translate(252,198)"/>
<path d="M0 0 C-2.35968744 2.09749995 -3.54616994 2.96905704 -6.75 3.1875 C-7.86375 3.0946875 -7.86375 3.0946875 -9 3 C-9.33 2.34 -9.66 1.68 -10 1 C-3.71428571 -1.42857143 -3.71428571 -1.42857143 0 0 Z " fill="#A17D4C" transform="translate(482,194)"/>
<path d="M0 0 C0.99 0.33 1.98 0.66 3 1 C2.19152271 2.16945792 1.37810888 3.33550461 0.5625 4.5 C0.11003906 5.1496875 -0.34242188 5.799375 -0.80859375 6.46875 C-1.20175781 6.9740625 -1.59492188 7.479375 -2 8 C-2.33 8 -2.66 8 -3 8 C-3.1875 5.125 -3.1875 5.125 -3 2 C-2.01 1.34 -1.02 0.68 0 0 Z " fill="#C4AF74" transform="translate(422,194)"/>
<path d="M0 0 C0.33 1.32 0.66 2.64 1 4 C-1.475 5.485 -1.475 5.485 -4 7 C-4.66 6.34 -5.32 5.68 -6 5 C-4.02 3.35 -2.04 1.7 0 0 Z " fill="#957E53" transform="translate(119,179)"/>
<path d="M0 0 C2.31 0.33 4.62 0.66 7 1 C7 1.66 7 2.32 7 3 C5.02 3.33 3.04 3.66 1 4 C0.67 2.68 0.34 1.36 0 0 Z " fill="#917049" transform="translate(492,223)"/>
<path d="M0 0 C1.9375 0.375 1.9375 0.375 4 1 C4.33 1.66 4.66 2.32 5 3 C3.6875 4.5 3.6875 4.5 2 6 C1.01 6 0.02 6 -1 6 C-0.67 4.02 -0.34 2.04 0 0 Z " fill="#A29261" transform="translate(129,200)"/>
<path d="M0 0 C1.32 0.66 2.64 1.32 4 2 C4 3.32 4 4.64 4 6 C2.35 5.67 0.7 5.34 -1 5 C-0.67 3.35 -0.34 1.7 0 0 Z " fill="#77613D" transform="translate(231,194)"/>
<path d="M0 0 C2.475 0.99 2.475 0.99 5 2 C4.67 3.32 4.34 4.64 4 6 C2.68 5.34 1.36 4.68 0 4 C0 2.68 0 1.36 0 0 Z " fill="#897752" transform="translate(113,224)"/>
<path d="M0 0 C1 2 1 2 0.4375 4 C0.293125 4.66 0.14875 5.32 0 6 C0.66 6.66 1.32 7.32 2 8 C1.01 8 0.02 8 -1 8 C-2.6875 6 -2.6875 6 -4 4 C-2.68 2.68 -1.36 1.36 0 0 Z " fill="#5B492D" transform="translate(123,208)"/>
<path d="M0 0 C0.66 1.32 1.32 2.64 2 4 C1.34 4 0.68 4 0 4 C-0.33 5.65 -0.66 7.3 -1 9 C-1.66 8.34 -2.32 7.68 -3 7 C-2.61121812 3.98694043 -1.73543126 2.60314689 0 0 Z " fill="#7C663A" transform="translate(246,202)"/>
<path d="M0 0 C2.72869407 0.03287583 5.2966618 0.56397771 8 1 C6.625 2.5 6.625 2.5 5 4 C4.34 4 3.68 4 3 4 C3 3.34 3 2.68 3 2 C1.35 2 -0.3 2 -2 2 C-1.34 1.34 -0.68 0.68 0 0 Z " fill="#625639" transform="translate(444,192)"/>
<path d="M0 0 C1.875 0.125 1.875 0.125 4 1 C5.25 4.0625 5.25 4.0625 6 7 C3.53199953 5.84826645 1.95216435 4.95216435 0 3 C0 2.01 0 1.02 0 0 Z " fill="#6A5230" transform="translate(214,208)"/>
<path d="M0 0 C2.31 0.33 4.62 0.66 7 1 C7.33 2.32 7.66 3.64 8 5 C6.68 4.67 5.36 4.34 4 4 C4 3.34 4 2.68 4 2 C2.68 2 1.36 2 0 2 C0 1.34 0 0.68 0 0 Z " fill="#B9985B" transform="translate(140,197)"/>
<path d="M0 0 C1.32 0 2.64 0 4 0 C4 1.32 4 2.64 4 4 C2.35 3.67 0.7 3.34 -1 3 C-0.67 2.01 -0.34 1.02 0 0 Z " fill="#6B6343" transform="translate(163,196)"/>
<path d="M0 0 C1.32 0.66 2.64 1.32 4 2 C3.67 2.99 3.34 3.98 3 5 C1.68 4.67 0.36 4.34 -1 4 C-0.67 2.68 -0.34 1.36 0 0 Z " fill="#6D6445" transform="translate(157,183)"/>
<path d="M0 0 C-0.33 0.99 -0.66 1.98 -1 3 C-1.99 3.33 -2.98 3.66 -4 4 C-4 3.01 -4 2.02 -4 1 C-4.66 0.67 -5.32 0.34 -6 0 C-3.50907189 -1.24546405 -2.58919267 -0.7767578 0 0 Z " fill="#8E7545" transform="translate(488,211)"/>
<path d="M0 0 C0.99 0.33 1.98 0.66 3 1 C2.67 1.99 2.34 2.98 2 4 C-0.31 4 -2.62 4 -5 4 C-4.360625 3.71125 -3.72125 3.4225 -3.0625 3.125 C-0.84793921 2.17176549 -0.84793921 2.17176549 0 0 Z " fill="#EEE8A7" transform="translate(345,211)"/>
<path d="M0 0 C0.99 0.66 1.98 1.32 3 2 C2.67 2.99 2.34 3.98 2 5 C0.68 5 -0.64 5 -2 5 C-2 4.01 -2 3.02 -2 2 C-1.34 2 -0.68 2 0 2 C0 1.34 0 0.68 0 0 Z " fill="#D5C587" transform="translate(393,203)"/>
<path d="M0 0 C0.66 0 1.32 0 2 0 C2 2.31 2 4.62 2 7 C0.0625 6.625 0.0625 6.625 -2 6 C-2.33 5.34 -2.66 4.68 -3 4 C-2.01 4 -1.02 4 0 4 C0 2.68 0 1.36 0 0 Z " fill="#ADA46E" transform="translate(137,205)"/>
<path d="M0 0 C1.98 0.99 3.96 1.98 6 3 C5.34 4.65 4.68 6.3 4 8 C1.84622436 5.37801226 0.59927826 3.35595828 0 0 Z " fill="#928759" transform="translate(379,197)"/>
<path d="M0 0 C0.66 0 1.32 0 2 0 C2 1.98 2 3.96 2 6 C1.01 6 0.02 6 -1 6 C-1.042721 4.33388095 -1.04063832 2.66617115 -1 1 C-0.67 0.67 -0.34 0.34 0 0 Z " fill="#A07545" transform="translate(216,197)"/>
<path d="M0 0 C1.67542976 0.28604898 3.34385343 0.61781233 5 1 C5 1.99 5 2.98 5 4 C3.68 3.34 2.36 2.68 1 2 C0.67 2.99 0.34 3.98 0 5 C-0.5625 3.0625 -0.5625 3.0625 -1 1 C-0.67 0.67 -0.34 0.34 0 0 Z " fill="#4F472C" transform="translate(238,192)"/>
<path d="M0 0 C0.99 0.33 1.98 0.66 3 1 C2.67 2.32 2.34 3.64 2 5 C1.01 5 0.02 5 -1 5 C-0.67 3.35 -0.34 1.7 0 0 Z " fill="#6D684D" transform="translate(152,178)"/>
<path d="M0 0 C0.99 0.33 1.98 0.66 3 1 C2.67 2.32 2.34 3.64 2 5 C1.01 4.67 0.02 4.34 -1 4 C-0.67 2.68 -0.34 1.36 0 0 Z " fill="#786E54" transform="translate(145,175)"/>
</svg>
