<svg width="151" height="151" viewBox="0 0 151 151" fill="none" xmlns="http://www.w3.org/2000/svg">
<rect x="3" y="3" width="145" height="145" rx="72.5" stroke="black" stroke-width="6"/>
<rect x="17" y="17" width="116" height="116" rx="58" fill="black"/>
<path d="M91.7948 79.4658C91.0757 78.8351 90.8394 78.1374 90.8462 77.1624L91.0177 52.7874C91.0315 50.8374 92.4904 49.1737 94.4219 48.9055C96.3534 48.6373 97.7918 49.8987 97.778 51.8487L97.6065 76.2237C97.5928 78.1737 96.1339 79.8373 94.2024 80.1055C93.2366 80.2396 92.514 80.0964 91.7948 79.4658Z" fill="white"/>
<path d="M67.8223 58.4432C67.1032 57.8126 66.8669 57.1148 66.8737 56.1398C66.8875 54.1898 68.3464 52.5262 70.2779 52.258L94.4219 48.9055C96.3534 48.6373 97.7917 49.8987 97.778 51.8487C97.7643 53.7987 96.3054 55.4623 94.3738 55.7305L70.2299 59.083C69.2641 59.2171 68.5415 59.0739 67.8223 58.4432Z" fill="white"/>
<path d="M53.0616 99.4547C51.6232 98.1934 51.637 96.2434 53.0959 94.5797L92.0006 50.2158C93.4596 48.5521 95.3911 48.2839 96.8294 49.5453C98.2678 50.8066 98.2541 52.7566 96.7951 54.4203L57.8904 98.7842C56.4315 100.448 54.4999 100.716 53.0616 99.4547Z" fill="white"/>
</svg>
